<svg width="100" height="100" viewBox="0 0 100 100" fill="none" xmlns="http://www.w3.org/2000/svg">
<path fill-rule="evenodd" clip-rule="evenodd" d="M28.802 3.97993C29.9029 2.32864 32.134 1.88243 33.7852 2.9833L31.792 5.97322C33.7852 2.9833 33.788 2.98513 33.788 2.98513L33.7908 2.98704L33.7968 2.99106L33.81 2.99996L33.8411 3.02119C33.8639 3.03688 33.8908 3.05564 33.9215 3.07748C33.9829 3.12114 34.0598 3.17726 34.1499 3.2459C34.3298 3.38294 34.5641 3.57127 34.8344 3.8115C35.3721 4.28946 36.0688 4.98792 36.7629 5.91334C38.1591 7.77495 39.5777 10.609 39.5777 14.3579C39.5777 17.4236 38.024 20.2655 36.8965 21.9914C36.284 22.9289 35.6773 23.7145 35.2241 24.2664C34.9959 24.5443 34.8026 24.7679 34.6614 24.9271C34.5907 25.0069 34.5328 25.0709 34.4898 25.1178C34.4767 25.1321 34.465 25.1448 34.4548 25.156C34.4481 25.1631 34.4421 25.1697 34.4367 25.1755L34.4189 25.1945L34.4123 25.2016L34.4084 25.2057C34.4084 25.2057 34.4073 25.2069 31.8923 22.8371L34.4073 25.2069C33.0463 26.6513 30.7721 26.719 29.3277 25.358C27.8851 23.9988 27.8158 21.7287 29.1713 20.284L29.1766 20.2783L31.792 22.7426C29.1766 20.2783 29.1756 20.2794 29.1756 20.2794L29.1713 20.284L29.1883 20.2655C29.2067 20.2454 29.2389 20.21 29.2828 20.1604C29.3709 20.0609 29.5051 19.9062 29.6699 19.7054C30.0027 19.3001 30.4442 18.7275 30.8798 18.0606C31.8484 16.578 32.3909 15.2276 32.3909 14.3579C32.3909 12.5171 31.7133 11.1588 31.0134 10.2255C30.6594 9.75343 30.308 9.4038 30.0597 9.18303C29.9369 9.07389 29.8437 9.0002 29.7943 8.96256C29.782 8.95322 29.7726 8.9462 29.7662 8.9415L29.7613 8.93789C28.1407 7.82846 27.7095 5.61869 28.802 3.97993ZM62.3408 3.97993C63.4417 2.32864 65.6728 1.88243 67.324 2.9833L65.3308 5.97322C67.3241 2.9833 67.3268 2.98513 67.3268 2.98513L67.3296 2.98704L67.3356 2.99106L67.3488 2.99996L67.3799 3.02119C67.4027 3.03688 67.4296 3.05564 67.4603 3.07748C67.5217 3.12114 67.5986 3.17726 67.6887 3.2459C67.8686 3.38294 68.1029 3.57127 68.3732 3.8115C68.9109 4.28946 69.6076 4.98792 70.3017 5.91334C71.6979 7.77495 73.1166 10.609 73.1166 14.3579C73.1166 17.4236 71.5628 20.2655 70.4353 21.9914C69.8228 22.9289 69.2161 23.7145 68.7629 24.2664C68.5347 24.5443 68.3414 24.7679 68.2002 24.9271C68.1295 25.0069 68.0716 25.0709 68.0286 25.1178C68.0071 25.1413 67.9893 25.1606 67.9755 25.1755L67.9577 25.1945L67.9511 25.2016L67.9472 25.2057C67.9472 25.2057 67.9461 25.2069 65.431 22.8371L67.9461 25.2069C66.5851 26.6513 64.3109 26.719 62.8665 25.358C61.424 23.9988 61.3546 21.7288 62.71 20.2841L62.7154 20.2783L65.3308 22.7426C62.7154 20.2783 62.7144 20.2794 62.7144 20.2794L62.7271 20.2655C62.7455 20.2454 62.7777 20.21 62.8216 20.1604C62.9097 20.0609 63.0439 19.9062 63.2087 19.7054C63.5416 19.3001 63.983 18.7275 64.4186 18.0606C65.3872 16.578 65.9297 15.2276 65.9297 14.3579C65.9297 12.5171 65.2521 11.1588 64.5522 10.2255C64.1982 9.75343 63.8468 9.4038 63.5985 9.18303C63.4757 9.07389 63.3825 9.0002 63.3331 8.96256C63.3209 8.95322 63.3114 8.9462 63.305 8.9415L63.3 8.93784C61.6795 7.82838 61.2483 5.61866 62.3408 3.97993ZM15.7409 37.9454C15.4287 34.2643 18.4431 31.5339 21.7307 31.5339H75.3928C78.6805 31.5339 81.6949 34.2642 81.3828 37.9453C80.5243 48.0626 75.0958 56.876 67.1695 62.3121L74.3754 77.7533C74.8443 77.6851 75.3238 77.6497 75.8116 77.6497C81.2692 77.6497 85.6936 82.0741 85.6936 87.5317C85.6936 92.9892 81.2692 97.4137 75.8116 97.4137C70.3541 97.4137 65.9297 92.9892 65.9297 87.5317C65.9297 85.1845 66.7481 83.0284 68.1151 81.3332L66.8153 78.5481H30.3074L22.4712 95.3398C21.632 97.1383 19.4937 97.9158 17.6953 97.0765C15.8969 96.2373 15.1193 94.099 15.9586 92.3006L29.9535 62.3116C22.0276 56.8755 16.5994 48.0624 15.7409 37.9454ZM36.2989 65.7091L33.6613 71.3612H63.4615L60.824 65.7094C57.0341 67.2304 52.8958 68.0672 48.5618 68.0672C44.2275 68.0672 40.089 67.2303 36.2989 65.7091ZM23.0571 38.7208C24.8036 51.2411 35.5587 60.8803 48.5618 60.8803C61.565 60.8803 72.3202 51.2411 74.0666 38.7208H23.0571ZM75.8116 84.8366C74.3233 84.8366 73.1166 86.0434 73.1166 87.5317C73.1166 89.02 74.3233 90.2268 75.8116 90.2268C77.3 90.2268 78.5067 89.02 78.5067 87.5317C78.5067 86.0434 77.3 84.8366 75.8116 84.8366Z" fill="black"/>
<path d="M45.5476 3.97993C46.6485 2.32864 48.8795 1.88243 50.5308 2.9833L48.5375 5.97322C50.5308 2.9833 50.5336 2.98513 50.5336 2.98513L50.5364 2.98704L50.5424 2.99106L50.5556 2.99996L50.5867 3.02119C50.6095 3.03688 50.6364 3.05564 50.6671 3.07748C50.7285 3.12114 50.8054 3.17726 50.8955 3.2459C51.0753 3.38294 51.3097 3.57127 51.5799 3.8115C52.1177 4.28946 52.8144 4.98792 53.5085 5.91334C54.9047 7.77495 56.3233 10.609 56.3233 14.3579C56.3233 17.4236 54.7696 20.2655 53.642 21.9914C53.0296 22.9289 52.4229 23.7145 51.9697 24.2664C51.7415 24.5443 51.5481 24.7679 51.407 24.9271C51.3363 25.0069 51.2784 25.0709 51.2354 25.1178L51.2003 25.156L51.1823 25.1755L51.1645 25.1945L51.1579 25.2016L51.154 25.2057C51.154 25.2057 51.1529 25.2069 48.6379 22.8371L51.1529 25.2069C49.7919 26.6513 47.5177 26.719 46.0732 25.358C44.6307 23.9988 44.5614 21.7287 45.9169 20.284L45.9338 20.2655C45.9523 20.2454 45.9844 20.21 46.0284 20.1604C46.1165 20.0609 46.2507 19.9062 46.4155 19.7054C46.7483 19.3001 47.1897 18.7275 47.6254 18.0606C48.594 16.578 49.1364 15.2276 49.1364 14.3579C49.1364 12.5171 48.4589 11.1588 47.759 10.2255C47.4049 9.75343 47.0536 9.4038 46.8052 9.18303C46.6824 9.07389 46.5893 9.0002 46.5399 8.96256L46.5118 8.9415L46.5069 8.93789C44.8863 7.82846 44.4551 5.61869 45.5476 3.97993Z" fill="black"/>
</svg>
