<svg width="100" height="100" viewBox="0 0 100 100" fill="none" xmlns="http://www.w3.org/2000/svg">
<path d="M28.008 37.969L13.5939 50.0003L28.008 62.0316C28.4954 62.4216 28.9001 62.905 29.1981 63.4535C29.4962 64.0021 29.6817 64.6046 29.7437 65.2258C29.8058 65.8469 29.7431 66.4743 29.5594 67.0709C29.3757 67.6675 29.0747 68.2215 28.6741 68.7002C28.2734 69.1789 27.7811 69.5728 27.2262 69.8587C26.6712 70.1446 26.0647 70.3167 25.4424 70.3651C24.82 70.4134 24.1942 70.3369 23.6017 70.1401C23.0093 69.9433 22.4621 69.6302 21.9924 69.2191L3.24237 53.594C2.71701 53.1541 2.2945 52.6043 2.0046 51.9834C1.71469 51.3625 1.56445 50.6856 1.56445 50.0003C1.56445 49.315 1.71469 48.6381 2.0046 48.0172C2.2945 47.3963 2.71701 46.8465 3.24237 46.4066L21.9924 30.7816C22.9491 30.016 24.1676 29.6556 25.3868 29.7773C26.606 29.8991 27.7291 30.4935 28.5155 31.4331C29.302 32.3727 29.6892 33.5829 29.5944 34.8046C29.4995 36.0262 28.93 37.1621 28.008 37.969ZM96.758 46.4066L78.008 30.7816C77.0513 30.016 75.8328 29.6556 74.6136 29.7773C73.3943 29.8991 72.2712 30.4935 71.4848 31.4331C70.6984 32.3727 70.3111 33.5829 70.406 34.8046C70.5009 36.0262 71.0703 37.1621 71.9924 37.969L86.4455 50.0003L71.9924 62.0316C71.5161 62.4236 71.1226 62.9065 70.8349 63.4521C70.5471 63.9977 70.3708 64.5951 70.3163 65.2096C70.2618 65.824 70.3301 66.4431 70.5172 67.0309C70.7044 67.6187 71.0067 68.1633 71.4064 68.6331C71.8497 69.1548 72.4001 69.5748 73.0202 69.8647C73.6404 70.1545 74.3157 70.3074 75.0002 70.3128C76.1001 70.3124 77.1648 69.9252 78.008 69.2191L96.758 53.594C97.2834 53.1541 97.7059 52.6043 97.9958 51.9834C98.2857 51.3625 98.4359 50.6856 98.4359 50.0003C98.4359 49.315 98.2857 48.6381 97.9958 48.0172C97.7059 47.3963 97.2834 46.8465 96.758 46.4066ZM64.1017 11.2112C62.9307 10.795 61.6427 10.8567 60.5168 11.3831C59.3909 11.9095 58.5176 12.8582 58.0861 14.0237L33.0861 82.7737C32.6698 83.9448 32.7316 85.2328 33.258 86.3587C33.7844 87.4846 34.7331 88.3578 35.8986 88.7894C36.4121 88.9746 36.9543 89.0672 37.5002 89.0628C38.4639 89.0646 39.4048 88.7693 40.1946 88.2171C40.9845 87.6649 41.585 86.8826 41.9142 85.9769L66.9142 17.2269C67.3305 16.0558 67.2688 14.7678 66.7424 13.6419C66.216 12.516 65.2673 11.6428 64.1017 11.2112Z" fill="white"/>
</svg>
