<svg width="100" height="100" viewBox="0 0 100 100" fill="none" xmlns="http://www.w3.org/2000/svg">
<path d="M90.875 42.7083C90.625 42.5417 88.5417 40.9167 84.0417 40.9167C82.875 40.9167 81.7084 41.0417 80.5417 41.25C79.6667 35.4167 74.7917 32.4583 74.5834 32.3333L73.375 31.625L72.625 32.75C71.625 34.25 70.8334 35.9583 70.5 37.7083C69.6667 41.0417 70.1667 44.2083 71.875 46.9167C69.8334 48.0833 66.5 48.375 65.7917 48.375H10.9167C9.50004 48.375 8.33337 49.5417 8.33337 51C8.33337 55.7917 9.08337 60.5833 10.75 65.0833C12.625 70.0417 15.4584 73.7083 19.0834 75.9583C23.1667 78.4583 29.875 79.875 37.5 79.875C40.7917 79.875 44.2084 79.5833 47.5834 78.9583C52.25 78.125 56.75 76.5 60.875 74.125C64.2913 72.1714 67.3491 69.6491 69.9167 66.6667C74.2917 61.7917 76.875 56.25 78.75 51.4583H79.5417C84.2917 51.4583 87.25 49.5417 88.875 47.9167C89.9584 46.9167 90.75 45.7083 91.3334 44.2917L91.6667 43.2917L90.875 42.7083ZM16.0417 46.8333H23.375C23.7084 46.8333 24.0417 46.5417 24.0417 46.1667V39.5833C24.0417 39.25 23.75 38.9167 23.375 38.9167H16.0417C15.6667 38.9167 15.375 39.2083 15.375 39.5833V46.1667C15.4167 46.5417 15.6667 46.8333 16.0417 46.8333ZM26.1667 46.8333H33.5C33.8334 46.8333 34.1667 46.5417 34.1667 46.1667V39.5833C34.1667 39.25 33.875 38.9167 33.5 38.9167H26.1667C25.7917 38.9167 25.5 39.2083 25.5 39.5833V46.1667C25.5417 46.5417 25.7917 46.8333 26.1667 46.8333ZM36.4584 46.8333H43.75C44.1667 46.8333 44.4584 46.5417 44.4584 46.1667V39.5833C44.4584 39.25 44.2084 38.9167 43.75 38.9167H36.4584C36.125 38.9167 35.8334 39.2083 35.8334 39.5833V46.1667C35.8334 46.5417 36.0834 46.8333 36.4584 46.8333ZM46.625 46.8333H54C54.3334 46.8333 54.625 46.5417 54.625 46.1667V39.5833C54.625 39.25 54.375 38.9167 54 38.9167H46.625C46.2917 38.9167 46 39.2083 46 39.5833V46.1667C46 46.5417 46.2917 46.8333 46.625 46.8333ZM26.1667 37.5H33.5C33.8334 37.5 34.1667 37.125 34.1667 36.75V30.2083C34.1667 29.8333 33.875 29.5417 33.5 29.5417H26.1667C25.7917 29.5417 25.5 29.7917 25.5 30.2083V36.75C25.5417 37.125 25.7917 37.5 26.1667 37.5ZM36.4584 37.5H43.75C44.1667 37.5 44.4584 37.125 44.4584 36.75V30.2083C44.4584 29.8333 44.2084 29.5417 43.75 29.5417H36.4584C36.125 29.5417 35.8334 29.7917 35.8334 30.2083V36.75C35.8334 37.125 36.0834 37.5 36.4584 37.5ZM46.625 37.5H54C54.3334 37.5 54.625 37.125 54.625 36.75V30.2083C54.625 29.8333 54.3334 29.5417 54 29.5417H46.625C46.2917 29.5417 46 29.7917 46 30.2083V36.75C46 37.125 46.2917 37.5 46.625 37.5ZM46.625 28H54C54.3334 28 54.625 27.7083 54.625 27.3333V20.8333C54.625 20.4167 54.3334 20.125 54 20.125H46.625C46.2917 20.125 46 20.375 46 20.8333V27.3333C46 27.6667 46.2917 28 46.625 28ZM56.875 46.8333H64.2084C64.5834 46.8333 64.875 46.5417 64.875 46.1667V39.5833C64.875 39.25 64.5834 38.9167 64.2084 38.9167H56.875C56.5417 38.9167 56.25 39.2083 56.25 39.5833V46.1667C56.25 46.5417 56.5417 46.8333 56.875 46.8333Z" fill="black"/>
</svg>
