<svg width="155" height="154" viewBox="0 0 155 154" fill="none" xmlns="http://www.w3.org/2000/svg">
<path d="M58.2494 151.594C57.1035 151.571 55.9756 151.304 54.9408 150.812C53.5407 150.086 52.4142 148.925 51.7307 147.504C51.0472 146.083 50.8438 144.478 51.151 142.931L59.5729 100.822L26.8479 88.5498C25.7299 88.14 24.7318 87.4577 23.944 86.5649C23.1562 85.6721 22.6036 84.5968 22.3361 83.4365C22.0726 82.2841 22.0937 81.0848 22.3977 79.9423C22.7016 78.7999 23.2793 77.7486 24.0807 76.8795L91.4557 4.692C92.5394 3.55299 93.9602 2.79208 95.5088 2.52134C97.0575 2.25059 98.6522 2.48432 100.058 3.18809C101.447 3.91076 102.565 5.06187 103.248 6.47061C103.931 7.87936 104.141 9.47066 103.848 11.0084L95.426 53.1178L128.151 65.3897C129.269 65.7995 130.267 66.4817 131.055 67.3746C131.843 68.2674 132.395 69.3427 132.663 70.5029C132.926 71.6649 132.905 72.8733 132.601 74.0253C132.298 75.1774 131.72 76.2391 130.918 77.1201L63.5432 149.308C62.8608 150.026 62.04 150.599 61.1302 150.992C60.2204 151.385 59.2404 151.59 58.2494 151.594ZM42.0072 78.8045L70.401 89.4522C71.9974 90.0689 73.328 91.2241 74.1629 92.718C74.9977 94.2119 75.2842 95.9506 74.9729 97.6334L70.3408 120.854L112.992 75.135L84.5979 64.4873C82.9943 63.8805 81.6564 62.7271 80.8201 61.2304C79.9837 59.7337 79.7025 57.9898 80.026 56.3061L84.658 33.0857L42.0072 78.8045Z" fill="white"/>
</svg>
