<svg width="345" height="253" viewBox="0 0 345 253" fill="none" xmlns="http://www.w3.org/2000/svg">
<path fill-rule="evenodd" clip-rule="evenodd" d="M63.9726 0H315.229C323.09 0.0229347 330.623 3.14854 336.181 8.69409C341.74 14.2396 344.873 21.7544 344.896 29.597V222.918C344.873 230.76 341.74 238.275 336.181 243.821C330.623 249.366 323.09 252.492 315.229 252.515H72.3169C68.6285 252.515 65.0911 251.053 62.4831 248.451C59.875 245.849 58.4098 242.32 58.4098 238.641C58.4098 234.961 59.875 231.432 62.4831 228.83C65.0911 226.228 68.6285 224.766 72.3169 224.766H161.322C165.011 224.766 168.548 223.304 171.156 220.702C173.764 218.1 175.229 214.571 175.229 210.892C175.229 207.212 173.764 203.683 171.156 201.081C168.548 198.479 165.011 197.017 161.322 197.017H13.9071C10.2187 197.017 6.68138 195.555 4.0733 192.953C1.46521 190.351 0 186.822 0 183.143C0 179.463 1.46521 175.934 4.0733 173.332C6.68138 170.73 10.2187 169.268 13.9071 169.268H127.945C131.634 169.268 135.171 167.806 137.779 165.205C140.387 162.603 141.852 159.074 141.852 155.394C141.852 151.714 140.387 148.185 137.779 145.583C135.171 142.981 131.634 141.519 127.945 141.519H73.7075C69.6503 141.519 65.7593 139.911 62.8904 137.049C60.0215 134.187 58.4098 130.305 58.4098 126.257C58.4098 122.21 60.0215 118.328 62.8904 115.466C65.7593 112.604 69.6503 110.996 73.7075 110.996H114.038C117.727 110.996 121.264 109.534 123.872 106.932C126.48 104.33 127.945 100.801 127.945 97.1212C127.945 93.4414 126.48 89.9124 123.872 87.3104C121.264 84.7085 117.727 83.2467 114.038 83.2467H36.1584C32.47 83.2467 28.9327 81.7849 26.3247 79.183C23.7166 76.581 22.2513 73.052 22.2513 69.3723C22.2513 65.6925 23.7166 62.1635 26.3247 59.5615C28.9327 56.9596 32.47 55.4978 36.1584 55.4978H175.229C178.918 55.4978 182.455 54.036 185.063 51.4341C187.671 48.8321 189.136 45.3031 189.136 41.6234C189.136 37.9436 187.671 34.4146 185.063 31.8126C182.455 29.2107 178.918 27.7489 175.229 27.7489H63.9726C60.2842 27.7489 56.7469 26.2871 54.1388 23.6852C51.5307 21.0832 50.0655 17.5542 50.0655 13.8745C50.0655 10.1947 51.5307 6.6657 54.1388 4.06373C56.7469 1.46177 60.2842 0 63.9726 0ZM158.008 83.2018L168.817 171.183H195.589L223.635 118.082L230.027 171.183H256.673L302.801 83.2018H278.166L248.267 140.179L241.968 83.2018H218.967L189.288 139.406L182.517 83.2018H158.008Z" fill="white"/>
</svg>
